# xmcd
# Copyright (C) 1995-1998 Ti Kan
#
# Track frame offsets:
#       150
#       16279
#       33841
#       49724
#       65980
#       82423
#       98039
#       114921
#       134201
#       149764
#       166189
#       183530
#       197334
#
# Disc length: 2850 seconds
#
# Revision: 0
# Processed by: cddbd v1.4PL0 Copyright (c) Steve Scherf et al.
# Submitted via: CD-Transfer v1.0
#
DISCID=bd0b200d
DTITLE=Dani Kalt - Eifach furt...
DYEAR=01
DGENRE=
TTITLE0=Eifach furt..
TTITLE1=Wäge dir
TTITLE2=Zäme sii
TTITLE3=Wie e Ängel
TTITLE4=Vogel im Wind
TTITLE5=Spring übere Schatte
TTITLE6=Im Lauf vor Ziit
TTITLE7=Wäg vo Dir
TTITLE8=Tag für Tag
TTITLE9=Grossi Reis
TTITLE10=I lueg Di a
TTITLE11=Gäbet Euch d'Hand
TTITLE12=Chline Mensch 
EXTD=
EXTT0=
EXTT1=
EXTT2=
EXTT3=
EXTT4=
EXTT5=
EXTT6=
EXTT7=
EXTT8=
EXTT9=
EXTT10=
EXTT11=
EXTT12=
PLAYORDER=
